<?xml version="1.0" encoding="UTF-8" standalone="no"?>
<svg
   xmlns:dc="http://purl.org/dc/elements/1.1/"
   xmlns:cc="http://creativecommons.org/ns#"
   xmlns:rdf="http://www.w3.org/1999/02/22-rdf-syntax-ns#"
   xmlns:svg="http://www.w3.org/2000/svg"
   xmlns="http://www.w3.org/2000/svg"
   xmlns:sodipodi="http://sodipodi.sourceforge.net/DTD/sodipodi-0.dtd"
   xmlns:inkscape="http://www.inkscape.org/namespaces/inkscape"
   version="1.1"
   id="SVGRoot"
   viewBox="0 0 12 12"
   height="12px"
   width="12px"
   inkscape:version="0.91 r13725"
   sodipodi:docname="close_prelight.svg">
  <sodipodi:namedview
     pagecolor="#ffffff"
     bordercolor="#666666"
     borderopacity="1"
     objecttolerance="10"
     gridtolerance="10"
     guidetolerance="10"
     inkscape:pageopacity="0"
     inkscape:pageshadow="2"
     inkscape:window-width="1680"
     inkscape:window-height="994"
     id="namedview4855"
     showgrid="false"
     inkscape:zoom="19.666667"
     inkscape:cx="-1.6525423"
     inkscape:cy="6.0000001"
     inkscape:window-x="0"
     inkscape:window-y="30"
     inkscape:window-maximized="1"
     inkscape:current-layer="SVGRoot" />
  <defs
     id="defs14995" />
  <metadata
     id="metadata14998">
    <rdf:RDF>
      <cc:Work
         rdf:about="">
        <dc:format>image/svg+xml</dc:format>
        <dc:type
           rdf:resource="http://purl.org/dc/dcmitype/StillImage" />
        <dc:title />
      </cc:Work>
    </rdf:RDF>
  </metadata>
  <g
     id="layer1"
     style="fill:#d52735;fill-opacity:1">
    <g
       transform="scale(0.75000005)"
       id="layer1-7"
       style="fill:#d52735;fill-opacity:1">
      <path
         id="path4098"
         style="fill:#d52735;fill-opacity:1;fill-rule:evenodd;stroke:none;stroke-width:0.01871653"
         d="M 4.2267257,10.831536 10.831525,4.2267162 c 0.255612,-0.2555929 0.673795,-0.2555929 0.929538,0 l 0.01221,0.012348 c 0.255667,0.2555929 0.255667,0.6737951 7.6e-5,0.9294628 l -6.604808,6.60475 c -0.2556677,0.255667 -0.6738694,0.255667 -0.9294625,0 l -0.012348,-0.0122 c -0.2556115,-0.255667 -0.2556115,-0.673944 0,-0.929537" />
      <path
         id="path4100"
         style="fill:#d52735;fill-opacity:1;fill-rule:evenodd;stroke:none;stroke-width:0.01871653"
         d="m 5.168541,4.2267162 6.604744,6.6048198 c 0.255592,0.255593 0.255592,0.67387 0,0.929463 l -0.0123,0.01227 c -0.255668,0.255668 -0.673851,0.255668 -0.929463,0 L 4.2267257,5.1685319 c -0.2556863,-0.2556678 -0.2556863,-0.6738699 0,-0.9295376 l 0.012275,-0.012275 c 0.2556676,-0.2556677 0.6738694,-0.2556677 0.9295373,0" />
    </g>
  </g>
  <g
     transform="matrix(0.70212371,0,0,0.70180521,0.39001028,0.38128328)"
     id="layer1-2"
     style="fill:none;fill-opacity:1;stroke:#d52735;stroke-width:1.11094463;stroke-miterlimit:4;stroke-dasharray:none;stroke-opacity:1">
    <path
       id="path4094"
       style="fill:none;fill-opacity:1;fill-rule:evenodd;stroke:#d52735;stroke-width:1.11094463;stroke-miterlimit:4;stroke-dasharray:none;stroke-opacity:1"
       d="M 8.0000711,16 C 12.418276,16 16,12.418268 16,8.0000063 16,3.5817262 12.418276,0 8.0000711,0 3.5817361,0 0,3.5817262 0,8.0000063 0,12.418268 3.5817361,16 8.0000711,16"
       inkscape:connector-curvature="0" />
  </g>
</svg>
